<svg width="438" height="283" viewBox="0 0 438 283" fill="none" xmlns="http://www.w3.org/2000/svg">
<mask id="path-1-inside-1_4_27" fill="white">
<path fill-rule="evenodd" clip-rule="evenodd" d="M216 248C284.483 248 340 192.483 340 124C340 55.5167 284.483 0 216 0C147.517 0 92 55.5167 92 124C92 156.907 104.818 186.821 125.735 209.019L113.977 251.457L163.98 236.594C179.799 243.915 197.423 248 216 248Z"/>
</mask>
<path d="M125.735 209.019L131.517 210.621L132.419 207.364L130.102 204.904L125.735 209.019ZM113.977 251.457L108.194 249.855L105.302 260.296L115.686 257.209L113.977 251.457ZM163.98 236.594L166.5 231.148L164.443 230.196L162.27 230.842L163.98 236.594ZM334 124C334 189.17 281.17 242 216 242V254C287.797 254 346 195.797 346 124H334ZM216 6C281.17 6 334 58.8304 334 124H346C346 52.203 287.797 -6 216 -6V6ZM98 124C98 58.8304 150.83 6 216 6V-6C144.203 -6 86 52.203 86 124H98ZM130.102 204.904C110.193 183.775 98 155.318 98 124H86C86 158.497 99.4445 189.866 121.368 213.134L130.102 204.904ZM119.759 253.059L131.517 210.621L119.952 207.417L108.194 249.855L119.759 253.059ZM162.27 230.842L112.267 245.706L115.686 257.209L165.689 242.345L162.27 230.842ZM216 242C198.311 242 181.546 238.112 166.5 231.148L161.46 242.039C178.053 249.718 196.535 254 216 254V242Z" fill="#27E623" mask="url(#path-1-inside-1_4_27)"/>
<path d="M142.62 96.1557C143.053 80.6978 154.592 68.4796 168.393 68.8657C182.195 69.2517 193.033 82.0958 192.601 97.5537" stroke="#27E523" stroke-width="6"/>
<path d="M242.004 95.7095C242.436 80.2515 253.975 68.0334 267.777 68.4194C281.579 68.8055 292.417 81.6496 291.984 97.1075" stroke="#27E523" stroke-width="6"/>
<path d="M242.971 163C243.496 178.455 232.735 191.364 218.936 191.832C205.137 192.301 193.525 180.152 193 164.697" stroke="#27E523" stroke-width="6"/>
<circle cx="32" cy="39" r="14.5" stroke="#27E523" stroke-width="3"/>
<circle cx="32" cy="39" r="14.5" stroke="#27E523" stroke-width="3"/>
<circle cx="32" cy="39" r="14.5" stroke="#27E523" stroke-width="3"/>
<circle cx="373" cy="235" r="14.5" stroke="#27E523" stroke-width="3"/>
<circle cx="373" cy="235" r="14.5" stroke="#27E523" stroke-width="3"/>
<circle cx="373" cy="235" r="14.5" stroke="#27E523" stroke-width="3"/>
<circle cx="373" cy="235" r="14.5" stroke="#27E523" stroke-width="3"/>
<circle cx="373" cy="235" r="14.5" stroke="#27E523" stroke-width="3"/>
<circle cx="373" cy="235" r="14.5" stroke="#27E523" stroke-width="3"/>
<circle cx="422" cy="39" r="14.5" stroke="#27E523" stroke-width="3"/>
<circle cx="422" cy="39" r="14.5" stroke="#27E523" stroke-width="3"/>
<circle cx="422" cy="39" r="14.5" stroke="#27E523" stroke-width="3"/>
<circle cx="16" cy="267" r="14.5" stroke="#27E523" stroke-width="3"/>
<circle cx="16" cy="267" r="14.5" stroke="#27E523" stroke-width="3"/>
<circle cx="16" cy="267" r="14.5" stroke="#27E523" stroke-width="3"/>
</svg>
